<?xml version="1.0" encoding="UTF-8" standalone="no"?>
<svg
   xmlns:dc="http://purl.org/dc/elements/1.1/"
   xmlns:cc="http://creativecommons.org/ns#"
   xmlns:rdf="http://www.w3.org/1999/02/22-rdf-syntax-ns#"
   xmlns:svg="http://www.w3.org/2000/svg"
   xmlns="http://www.w3.org/2000/svg"
   viewBox="0 0 320 82.518936"
   height="82.518936"
   width="320"
   xml:space="preserve"
   id="svg2"
   version="1.1"><metadata
     id="metadata8"><rdf:RDF><cc:Work
         rdf:about=""><dc:format>image/svg+xml</dc:format><dc:type
           rdf:resource="http://purl.org/dc/dcmitype/StillImage" /></cc:Work></rdf:RDF></metadata><defs
     id="defs6"><clipPath
       id="clipPath18"
       clipPathUnits="userSpaceOnUse"><path
         id="path16"
         d="M 0,61.889 H 240 V 0 H 0 Z" /></clipPath></defs><g
     transform="matrix(1.3333333,0,0,-1.3333333,0,82.518933)"
     id="g10"><g
       id="g12"><g
         clip-path="url(#clipPath18)"
         id="g14"><g
           transform="translate(69.2833,23.2671)"
           id="g20"><path
             id="path22"
             style="fill:#00694b;fill-opacity:1;fill-rule:nonzero;stroke:none"
             d="m 0,0 c -4.237,0 -7.684,3.447 -7.684,7.683 0,4.237 3.447,7.684 7.684,7.684 4.237,0 7.684,-3.447 7.684,-7.684 C 7.684,3.447 4.237,0 0,0 m 1.144,18.132 h -16.216 c -5.469,0 -9.903,-4.698 -9.903,-10.493 0,-5.794 4.434,-10.492 9.903,-10.492 H 1.144 c 5.469,0 9.903,4.698 9.903,10.492 0,5.795 -4.434,10.493 -9.903,10.493" /></g><g
           transform="translate(99.6051,41.4707)"
           id="g24"><path
             id="path26"
             style="fill:#00694b;fill-opacity:1;fill-rule:nonzero;stroke:none"
             d="m 0,0 c -0.341,0 -0.661,-0.1 -0.961,-0.3 -0.3,-0.201 -0.53,-0.479 -0.69,-0.841 l -5.522,-14.194 -6.032,14.194 c -0.16,0.381 -0.39,0.672 -0.69,0.872 -0.301,0.198 -0.62,0.298 -0.961,0.298 -0.42,0 -0.831,-0.163 -1.23,-0.493 -0.4,-0.33 -0.601,-0.767 -0.601,-1.307 0,-0.3 0.05,-0.549 0.151,-0.749 l 7.412,-17.406 c 0.16,-0.362 0.386,-0.635 0.675,-0.826 0.291,-0.19 0.606,-0.295 0.946,-0.315 0.359,0 0.7,0.1 1.02,0.301 0.32,0.2 0.57,0.49 0.751,0.869 L 1.68,-2.55 C 1.8,-2.271 1.86,-2 1.86,-1.741 1.86,-1.26 1.675,-0.85 1.305,-0.51 0.934,-0.171 0.499,0 0,0" /></g><g
           transform="translate(119.0126,37.9588)"
           id="g28"><path
             id="path30"
             style="fill:#00694b;fill-opacity:1;fill-rule:nonzero;stroke:none"
             d="M 0,0 C 0.541,0 0.981,0.156 1.321,0.466 1.661,0.777 1.83,1.182 1.83,1.683 1.83,2.203 1.656,2.628 1.305,2.958 0.956,3.287 0.52,3.453 0,3.453 h -10.054 c -0.52,0 -0.954,-0.176 -1.305,-0.525 -0.35,-0.351 -0.525,-0.786 -0.525,-1.306 v -17.345 c 0,-0.523 0.175,-0.958 0.525,-1.307 0.351,-0.349 0.785,-0.525 1.305,-0.525 H 0 c 0.52,0 0.956,0.159 1.305,0.481 0.351,0.32 0.525,0.73 0.525,1.229 0,0.461 -0.174,0.867 -0.525,1.216 C 0.956,-14.28 0.52,-14.104 0,-14.104 h -8.133 v 5.551 h 6.782 c 0.541,0 0.981,0.157 1.322,0.467 0.339,0.31 0.51,0.715 0.51,1.216 0,0.518 -0.176,0.945 -0.526,1.275 -0.349,0.33 -0.785,0.496 -1.306,0.496 H -8.133 V 0 Z" /></g><g
           transform="translate(146.1626,41.4414)"
           id="g32"><path
             id="path34"
             style="fill:#00694b;fill-opacity:1;fill-rule:nonzero;stroke:none"
             d="M 0,0 C -0.281,0 -0.556,-0.076 -0.826,-0.225 -1.095,-0.376 -1.31,-0.571 -1.47,-0.811 l -6.723,-10.052 -6.542,10.052 c -0.16,0.24 -0.39,0.435 -0.69,0.586 -0.301,0.149 -0.601,0.225 -0.901,0.225 -0.521,0 -0.965,-0.181 -1.335,-0.54 -0.371,-0.361 -0.556,-0.791 -0.556,-1.292 v -17.374 c 0,-0.522 0.16,-0.957 0.48,-1.306 0.32,-0.35 0.73,-0.525 1.231,-0.525 0.52,0 0.94,0.171 1.26,0.51 0.32,0.339 0.48,0.779 0.48,1.321 v 12.363 l 4.952,-7.832 c 0.2,-0.24 0.431,-0.435 0.691,-0.587 0.259,-0.149 0.52,-0.214 0.78,-0.192 0.28,-0.022 0.55,0.043 0.81,0.192 0.26,0.152 0.491,0.347 0.691,0.587 l 4.952,7.563 v -12.094 c 0,-0.542 0.174,-0.982 0.525,-1.321 0.349,-0.339 0.804,-0.51 1.365,-0.51 0.559,0 1.01,0.175 1.351,0.525 0.339,0.349 0.51,0.784 0.51,1.306 v 17.374 c 0,0.521 -0.186,0.955 -0.556,1.307 C 0.935,-0.176 0.499,0 0,0" /></g><g
           transform="translate(168.0731,37.9588)"
           id="g36"><path
             id="path38"
             style="fill:#00694b;fill-opacity:1;fill-rule:nonzero;stroke:none"
             d="M 0,0 C 0.541,0 0.981,0.156 1.321,0.466 1.661,0.777 1.83,1.182 1.83,1.683 1.83,2.203 1.656,2.628 1.305,2.958 0.956,3.287 0.52,3.453 0,3.453 h -10.053 c -0.521,0 -0.955,-0.176 -1.306,-0.525 -0.35,-0.351 -0.525,-0.786 -0.525,-1.306 v -17.345 c 0,-0.523 0.175,-0.958 0.525,-1.307 0.351,-0.349 0.785,-0.525 1.306,-0.525 H 0 c 0.52,0 0.956,0.159 1.305,0.481 0.351,0.32 0.525,0.73 0.525,1.229 0,0.461 -0.174,0.867 -0.525,1.216 C 0.956,-14.28 0.52,-14.104 0,-14.104 h -8.133 v 5.551 h 6.782 c 0.541,0 0.981,0.157 1.322,0.467 0.339,0.31 0.51,0.715 0.51,1.216 0,0.518 -0.176,0.945 -0.526,1.275 -0.349,0.33 -0.785,0.496 -1.306,0.496 H -8.133 V 0 Z" /></g><g
           transform="translate(194.1294,41.4121)"
           id="g40"><path
             id="path42"
             style="fill:#00694b;fill-opacity:1;fill-rule:nonzero;stroke:none"
             d="m 0,0 c -0.48,0 -0.876,-0.161 -1.186,-0.481 -0.31,-0.32 -0.465,-0.721 -0.465,-1.202 v -12.902 l -10.923,13.923 c -0.14,0.2 -0.355,0.362 -0.646,0.481 -0.289,0.12 -0.585,0.181 -0.885,0.181 -0.52,0 -0.955,-0.176 -1.306,-0.525 -0.35,-0.352 -0.525,-0.786 -0.525,-1.307 v -17.496 c 0,-0.479 0.151,-0.879 0.451,-1.199 0.3,-0.322 0.69,-0.481 1.17,-0.481 0.5,0 0.905,0.159 1.216,0.481 0.309,0.32 0.465,0.72 0.465,1.199 V -6.513 L -1.62,-20.498 c 0.119,-0.161 0.315,-0.285 0.584,-0.376 0.27,-0.09 0.545,-0.134 0.826,-0.134 0.52,0 0.955,0.176 1.305,0.525 0.351,0.349 0.525,0.784 0.525,1.306 v 17.494 c 0,0.481 -0.15,0.882 -0.449,1.202 C 0.871,-0.161 0.48,0 0,0" /></g><g
           transform="translate(219.4908,40.931)"
           id="g44"><path
             id="path46"
             style="fill:#00694b;fill-opacity:1;fill-rule:nonzero;stroke:none"
             d="m 0,0 c -0.341,0.32 -0.78,0.481 -1.321,0.481 h -13.325 c -0.52,0 -0.955,-0.161 -1.306,-0.481 -0.349,-0.32 -0.525,-0.73 -0.525,-1.231 0,-0.52 0.17,-0.94 0.511,-1.26 0.339,-0.32 0.78,-0.481 1.32,-0.481 h 4.712 v -15.723 c 0,-0.523 0.18,-0.958 0.54,-1.307 0.36,-0.349 0.82,-0.525 1.381,-0.525 0.559,0 1.029,0.176 1.41,0.525 0.38,0.349 0.571,0.784 0.571,1.307 v 15.723 h 4.711 c 0.541,0 0.98,0.156 1.321,0.466 0.339,0.31 0.509,0.726 0.509,1.246 0,0.52 -0.17,0.94 -0.509,1.26" /></g><g
           transform="translate(38.2167,41.4267)"
           id="g48"><path
             id="path50"
             style="fill:#00694b;fill-opacity:1;fill-rule:nonzero;stroke:none"
             d="M 0,0 C -0.281,0 -0.556,-0.076 -0.826,-0.225 -1.095,-0.376 -1.31,-0.571 -1.47,-0.811 l -6.723,-10.052 -6.542,10.052 c -0.16,0.24 -0.39,0.435 -0.69,0.586 -0.301,0.149 -0.601,0.225 -0.901,0.225 -0.521,0 -0.965,-0.181 -1.335,-0.54 -0.371,-0.361 -0.556,-0.791 -0.556,-1.292 v -17.374 c 0,-0.522 0.16,-0.957 0.48,-1.306 0.32,-0.35 0.73,-0.526 1.231,-0.526 0.52,0 0.94,0.171 1.26,0.511 0.32,0.339 0.48,0.779 0.48,1.321 v 12.363 l 4.952,-7.832 c 0.2,-0.24 0.431,-0.435 0.691,-0.587 0.259,-0.149 0.52,-0.215 0.78,-0.193 0.28,-0.022 0.55,0.044 0.81,0.193 0.26,0.152 0.491,0.347 0.691,0.587 l 4.952,7.563 v -12.094 c 0,-0.542 0.174,-0.982 0.525,-1.321 0.349,-0.34 0.805,-0.511 1.365,-0.511 0.559,0 1.01,0.176 1.351,0.526 0.339,0.349 0.51,0.784 0.51,1.306 v 17.374 c 0,0.521 -0.186,0.955 -0.556,1.307 C 0.935,-0.176 0.499,0 0,0" /></g></g></g></g></svg>