<?xml version="1.0" encoding="UTF-8" standalone="no"?>
<svg
   xmlns:dc="http://purl.org/dc/elements/1.1/"
   xmlns:cc="http://creativecommons.org/ns#"
   xmlns:rdf="http://www.w3.org/1999/02/22-rdf-syntax-ns#"
   xmlns:svg="http://www.w3.org/2000/svg"
   xmlns="http://www.w3.org/2000/svg"
   viewBox="0 0 124.7864 128.92387"
   height="128.92387"
   width="124.7864"
   xml:space="preserve"
   id="svg2"
   version="1.1"><metadata
     id="metadata8"><rdf:RDF><cc:Work
         rdf:about=""><dc:format>image/svg+xml</dc:format><dc:type
           rdf:resource="http://purl.org/dc/dcmitype/StillImage" /></cc:Work></rdf:RDF></metadata><defs
     id="defs6"><clipPath
       id="clipPath18"
       clipPathUnits="userSpaceOnUse"><path
         id="path16"
         d="M 0,96.693 H 93.59 V 0 H 0 Z" /></clipPath></defs><g
     transform="matrix(1.3333333,0,0,-1.3333333,0,128.92387)"
     id="g10"><g
       id="g12"><g
         clip-path="url(#clipPath18)"
         id="g14"><g
           transform="translate(67.3684,41.3659)"
           id="g20"><path
             id="path22"
             style="fill:#00694b;fill-opacity:1;fill-rule:nonzero;stroke:none"
             d="m 0,0 c -2.509,0 -4.551,2.042 -4.551,4.551 0,2.51 2.042,4.551 4.551,4.551 2.509,0 4.551,-2.041 4.551,-4.551 C 4.551,2.042 2.509,0 0,0 m 0.026,11.094 c -3.432,0 -6.215,-2.626 -6.215,-5.866 v -9.212 -11.515 c 0,-3.24 2.783,-5.866 6.215,-5.866 3.432,0 6.215,2.626 6.215,5.866 v 11.515 9.212 c 0,3.24 -2.783,5.866 -6.215,5.866" /></g><g
           transform="translate(67.4281,54.425)"
           id="g24"><path
             id="path26"
             style="fill:#00694b;fill-opacity:1;fill-rule:nonzero;stroke:none"
             d="M 0,0 C 4.842,0 6.166,-3.587 6.166,-3.587 V 15.86 c 0,1.787 -0.677,3.375 -1.958,4.592 -1.278,1.207 -2.798,1.816 -4.523,1.816 -1.007,0 -1.999,-0.266 -2.948,-0.79 -0.936,-0.525 -1.689,-1.212 -2.248,-2.05 L -20.656,-3.218 -35.384,19.409 c -0.589,0.882 -1.404,1.582 -2.435,2.102 -1.016,0.504 -2.047,0.757 -3.075,0.757 -1.782,0 -3.333,-0.628 -4.609,-1.865 -1.291,-1.257 -1.944,-2.785 -1.944,-4.543 v -43.183 c 0,-1.769 0.565,-3.284 1.68,-4.501 1.143,-1.247 2.674,-1.907 4.427,-1.907 1.791,0 3.341,0.64 4.483,1.852 1.126,1.195 1.698,2.728 1.698,4.556 v 24.321 l 9.386,-14.251 c 0.633,-0.757 1.805,-2.605 5.084,-2.605 3.278,0 4.517,1.848 5.15,2.605 l 8.821,13.551 C -6.273,-3.076 -4.721,0 0,0" /></g></g></g></g></svg>